<?xml version="1.0" standalone="no"?>
<!DOCTYPE svg PUBLIC "-//W3C//DTD SVG 20010904//EN"
 "http://www.w3.org/TR/2001/REC-SVG-20010904/DTD/svg10.dtd">
<svg version="1.0" xmlns="http://www.w3.org/2000/svg"
 width="512.000000pt" height="512.000000pt" viewBox="0 0 512.000000 512.000000"
 preserveAspectRatio="xMidYMid meet">

<g transform="translate(0.000000,512.000000) scale(0.100000,-0.100000)"
fill="#000000" stroke="none">
<path d="M0 2560 l0 -2560 2560 0 2560 0 0 2560 0 2560 -2560 0 -2560 0 0
-2560z m2855 2334 c290 -35 625 -151 889 -308 136 -81 306 -215 431 -341 389
-389 632 -896 686 -1429 14 -146 7 -431 -16 -571 -113 -710 -543 -1325 -1180
-1687 -221 -125 -506 -221 -785 -264 -157 -25 -471 -25 -630 -1 -386 59 -752
208 -1050 431 -185 138 -427 393 -558 588 -255 380 -392 828 -392 1276 0 266
36 484 121 737 203 604 638 1098 1199 1364 413 195 821 260 1285 205z"/>
<path d="M2260 4854 c-387 -53 -800 -230 -1105 -475 -317 -254 -545 -563 -700
-950 -296 -736 -186 -1550 296 -2194 225 -301 576 -585 889 -720 326 -141 598
-199 930 -198 345 1 666 76 975 228 232 114 428 256 620 450 476 480 715 1139
654 1805 -62 689 -479 1366 -1061 1726 -293 181 -627 297 -960 333 -133 15
-411 12 -538 -5z m260 -159 c15 -8 30 -20 32 -27 3 -9 15 -4 37 15 23 19 44
27 70 27 67 0 107 -48 113 -135 3 -42 0 -50 -16 -53 -24 -5 -36 14 -36 59 0
61 -51 97 -92 65 -31 -23 -40 -69 -46 -233 -4 -150 -6 -163 -23 -163 -23 0
-21 -12 -23 185 -1 135 -4 165 -19 188 -41 63 -110 34 -125 -53 -6 -36 -12
-46 -30 -48 -20 -3 -22 1 -22 38 0 114 89 182 180 135z m-439 -351 c60 -206
72 -261 55 -243 -8 8 -136 454 -136 473 0 40 14 1 81 -230z m964 -11 c-36
-125 -68 -229 -70 -232 -17 -16 -8 28 40 195 83 285 88 301 92 282 3 -10 -25
-120 -62 -245z m-1355 97 c68 -35 99 -125 65 -190 l-15 -29 48 -3 c39 -3 47
-6 47 -23 0 -18 -7 -20 -85 -20 -79 0 -85 2 -88 21 -2 12 8 35 22 52 49 57 28
132 -42 152 -49 15 -86 1 -112 -42 -27 -44 -25 -57 11 -106 47 -65 39 -76 -55
-80 -44 -2 -84 2 -89 7 -18 18 13 41 55 41 38 0 39 0 24 22 -24 33 -20 99 7
139 51 76 130 98 207 59z m1721 -46 c68 -73 129 -72 211 4 14 13 31 21 37 18
21 -14 10 -44 -28 -79 l-39 -35 29 -28 c103 -99 28 -274 -117 -274 -145 0
-214 177 -108 277 l34 31 -33 27 c-43 36 -51 53 -37 71 17 19 23 18 51 -12z
m-696 -300 c199 -16 422 -94 612 -212 303 -188 532 -480 646 -824 56 -166 72
-277 71 -473 -2 -249 -41 -420 -148 -640 -168 -344 -482 -621 -836 -739 -399
-132 -802 -106 -1177 76 -141 68 -259 154 -384 279 -450 450 -554 1157 -256
1738 199 389 592 689 1014 775 144 30 276 36 458 20z m-1425 -177 c96 -97 168
-177 161 -177 -17 0 -351 334 -351 350 0 6 3 10 8 8 4 -2 86 -83 182 -181z
m560 170 c0 -33 -23 -37 -221 -37 -109 0 -204 3 -213 6 -9 3 -16 15 -16 25 0
18 11 19 225 19 178 0 225 -3 225 -13z m2180 5 c0 -14 -360 -366 -367 -358 -7
7 345 366 359 366 5 0 8 -4 8 -8z m-3145 -347 c33 -23 39 -24 54 -11 62 56
171 0 171 -89 0 -39 -36 -33 -54 9 -22 53 -57 64 -96 30 -11 -9 -16 -36 -18
-89 -3 -115 22 -156 109 -174 25 -5 34 -12 34 -26 0 -42 -91 -26 -145 25 l-31
29 -32 -35 c-39 -43 -94 -55 -132 -30 -29 19 -34 56 -7 56 10 0 23 -5 29 -11
19 -19 61 -1 88 38 22 33 25 48 25 122 0 73 -3 88 -22 108 -12 13 -29 23 -38
23 -20 0 -47 -28 -51 -54 -5 -26 -35 -44 -50 -29 -17 17 7 77 42 108 39 32 76
32 124 0z m3212 -17 c7 -6 21 -3 37 7 18 12 36 15 58 11 34 -7 54 -8 113 -4
25 1 42 -5 60 -22 25 -23 25 -25 25 -187 0 -139 2 -165 16 -170 8 -3 25 4 38
16 40 38 67 21 42 -27 -25 -49 -88 -58 -124 -19 -20 21 -22 35 -24 187 l-3
165 -26 3 c-14 2 -31 -3 -37 -11 -6 -7 -15 -74 -19 -148 -7 -125 -9 -134 -28
-134 -19 0 -20 6 -18 147 2 153 -2 167 -42 152 -28 -11 -36 -42 -45 -170 -9
-128 -19 -159 -42 -135 -9 8 -13 54 -13 154 l0 142 -28 3 c-35 4 -47 30 -22
48 18 14 59 10 82 -8z m-3277 -639 c208 -54 284 -79 241 -79 -8 0 -124 29
-259 65 -134 36 -246 65 -248 65 -2 0 -4 5 -4 11 0 6 8 8 18 5 9 -3 123 -33
252 -67z m3737 55 c-9 -10 -500 -135 -511 -131 -17 7 -4 10 259 81 209 55 270
67 252 50z m-3789 -294 l102 0 0 -135 c0 -128 -1 -135 -20 -135 -25 0 -33 30
-28 114 1 36 0 66 -3 66 -4 0 -46 -43 -93 -97 l-87 -96 32 -33 c20 -20 29 -39
26 -48 -9 -22 -25 -20 -59 9 -16 14 -33 25 -38 25 -4 0 -32 -29 -61 -65 -31
-38 -59 -64 -68 -63 -33 6 -22 39 34 102 l56 65 -21 21 c-12 12 -19 27 -17 33
6 19 37 20 56 3 17 -16 24 -11 109 81 l91 98 -62 3 c-86 3 -107 9 -107 31 0
25 11 33 35 27 11 -3 66 -6 123 -6z m3740 -4 c42 -22 83 -71 91 -108 10 -48
-5 -103 -46 -172 -63 -103 -44 -193 27 -132 29 24 35 25 47 13 43 -43 -78
-113 -128 -74 -53 41 -51 103 6 211 55 104 58 141 16 188 -25 28 -36 33 -74
33 -53 0 -96 -27 -110 -68 -7 -21 -1 -43 28 -108 29 -63 36 -88 31 -114 -14
-75 -111 -101 -167 -46 -48 48 -31 143 29 157 40 10 41 11 31 50 -13 46 -4 87
29 126 46 54 132 74 190 44z m-3464 -605 c-10 -9 -454 -121 -481 -121 -45 0
19 20 240 76 133 33 244 59 246 57 3 -2 0 -7 -5 -12z m3293 -52 c131 -34 239
-62 241 -64 12 -11 -22 -10 -73 2 -282 68 -468 123 -418 123 7 0 119 -27 250
-61z m-86 -258 c35 -34 39 -44 39 -87 0 -27 -7 -71 -15 -98 -8 -27 -15 -82
-15 -122 0 -64 3 -75 21 -85 18 -9 25 -7 48 15 31 30 46 33 55 11 3 -9 -6 -29
-23 -47 -38 -43 -92 -45 -127 -4 -21 23 -24 37 -24 104 0 42 7 104 15 137 22
91 19 120 -11 144 -84 66 -151 -34 -86 -131 72 -110 -11 -226 -128 -178 -88
36 -73 184 20 205 28 6 30 10 30 51 0 25 5 54 11 65 16 31 70 59 113 59 31 0
45 -7 77 -39z m-3367 -6 c20 -11 33 -12 40 -5 16 16 82 12 106 -8 28 -23 39
-80 40 -209 0 -108 10 -153 34 -153 9 0 23 14 31 31 18 34 48 36 53 4 4 -30
-34 -84 -64 -91 -38 -10 -76 14 -91 56 -7 19 -12 82 -13 140 -1 174 -12 203
-71 185 -21 -7 -21 -11 -18 -154 4 -142 3 -146 -17 -149 -27 -4 -34 32 -34
178 0 112 -7 134 -36 128 -34 -6 -44 -46 -44 -184 0 -103 -3 -133 -14 -137
-29 -12 -36 16 -36 153 0 147 -4 160 -51 160 -38 0 -47 19 -20 42 24 18 62 16
89 -5 8 -7 18 -5 30 5 15 14 37 25 52 27 3 1 18 -6 34 -14z m408 -572 c-189
-199 -210 -218 -218 -210 -4 4 60 75 141 159 196 203 225 231 232 224 3 -3
-66 -81 -155 -173z m2573 -12 c96 -101 175 -188 175 -195 -1 -12 -370 364
-370 377 0 20 29 -8 195 -182z m-2206 -156 c70 -36 104 -115 77 -179 l-15 -36
38 0 c41 0 65 -18 52 -38 -5 -9 -31 -12 -87 -10 -72 3 -79 5 -82 24 -2 12 8
35 22 52 43 50 32 108 -26 138 -37 19 -83 12 -115 -18 -32 -30 -31 -87 3 -127
44 -53 32 -66 -65 -69 -89 -3 -114 6 -91 33 8 9 29 15 56 15 l43 0 -15 37
c-49 116 91 238 205 178z m1861 5 c8 0 31 2 51 6 29 5 41 1 64 -18 23 -20 29
-35 33 -81 4 -56 5 -57 36 -57 36 0 74 -33 77 -65 5 -45 -3 -64 -41 -108 -22
-25 -40 -47 -40 -50 0 -3 10 -7 23 -9 14 -2 23 -11 25 -26 5 -30 -18 -37 -63
-18 -33 14 -39 14 -58 1 -12 -8 -34 -15 -49 -15 -41 0 -37 33 7 59 l35 20 0
145 c0 118 -3 147 -16 160 -18 18 -17 18 -38 10 -14 -5 -16 -27 -16 -143 0
-138 -7 -166 -36 -154 -11 4 -14 34 -14 133 0 109 -3 131 -18 151 -31 37 -52
19 -52 -44 0 -127 -13 -236 -28 -242 -31 -12 -37 13 -33 155 2 93 -1 140 -7
140 -6 0 -14 -4 -17 -10 -8 -12 -42 -13 -49 -1 -10 15 5 41 31 55 22 11 61 12
193 6z m-1437 -332 c-70 -259 -73 -268 -80 -251 -2 6 19 96 47 200 73 268 81
294 89 288 4 -2 -21 -109 -56 -237z m975 -13 c64 -217 74 -260 56 -243 -7 8
-143 469 -144 488 0 42 25 -28 88 -245z m-450 97 c81 1 124 -49 126 -147 1
-63 2 -65 27 -65 28 0 53 -38 43 -65 -8 -19 -44 -20 -44 0 0 28 -18 15 -30
-21 -18 -53 -7 -82 33 -86 24 -2 32 -8 32 -22 0 -51 -74 -44 -110 10 l-21 31
-36 -18 c-55 -28 -126 -33 -168 -12 -43 22 -50 60 -10 55 105 -13 116 -13 160
10 26 13 51 36 60 53 18 36 19 160 2 192 -14 26 -51 38 -87 29 -24 -6 -24 -8
-27 -129 -3 -118 -4 -122 -25 -125 -23 -3 -23 -2 -23 116 0 100 -3 121 -16
126 -30 12 -64 6 -85 -15 -18 -18 -20 -28 -14 -74 4 -36 2 -55 -5 -60 -35 -22
-64 87 -40 146 17 40 87 74 135 65 23 -5 36 -2 45 9 8 10 17 12 24 6 6 -6 31
-10 54 -9z m-790 -114 l-3 -23 -220 0 -220 0 -3 23 -3 22 226 0 226 0 -3 -22z"/>
<path d="M3464 4250 c-56 -22 -83 -109 -48 -158 24 -34 71 -55 110 -48 38 8
79 52 89 95 16 75 -75 142 -151 111z"/>
<path d="M2405 4044 c-285 -44 -435 -100 -650 -242 -122 -81 -285 -241 -373
-367 -122 -173 -206 -379 -244 -600 -17 -101 -19 -147 -15 -290 6 -185 19
-261 72 -422 77 -231 213 -440 387 -593 43 -39 82 -70 87 -70 5 0 39 66 76
146 l67 146 -75 69 c-66 60 -136 149 -153 192 -4 12 14 17 93 26 54 6 112 12
128 14 23 1 30 7 30 22 0 11 -5 19 -11 18 -7 -1 -65 -5 -130 -9 -66 -3 -123
-7 -129 -8 -10 -1 -61 132 -53 140 5 4 216 -25 296 -42 31 -6 34 -5 30 17 -3
23 -11 25 -167 51 -90 16 -167 31 -170 34 -3 3 -6 65 -6 137 1 123 3 139 34
228 l33 96 -16 87 c-24 123 -30 319 -17 478 17 208 57 315 129 345 85 36 180
-24 398 -251 l149 -154 75 16 c105 22 455 22 560 0 l75 -16 108 114 c121 127
234 222 310 260 70 36 130 30 170 -18 44 -53 78 -175 86 -308 7 -136 -2 -390
-19 -489 -11 -66 -10 -74 14 -134 14 -34 30 -85 36 -112 14 -61 16 -263 3
-276 -6 -6 -84 -22 -174 -37 -156 -26 -164 -28 -167 -51 -3 -20 0 -23 20 -18
64 15 301 48 306 42 4 -3 -4 -36 -16 -72 -13 -36 -21 -67 -19 -70 3 -2 36 -9
73 -14 90 -12 104 -17 104 -36 0 -12 -7 -14 -27 -9 -16 3 -58 9 -95 12 -57 6
-68 10 -68 25 0 22 -15 26 -140 34 -52 3 -104 7 -115 8 -14 1 -20 -4 -20 -18
0 -15 8 -21 30 -23 157 -13 226 -25 221 -39 -17 -43 -86 -131 -153 -193 l-75
-70 13 -33 c34 -86 119 -257 127 -257 14 0 141 116 207 190 166 187 284 437
332 705 21 121 21 352 0 472 -108 601 -567 1074 -1162 1198 -78 17 -355 29
-420 19z m-917 -1779 c6 -3 12 -11 12 -20 0 -14 -11 -15 -77 -9 -79 7 -109 18
-85 33 12 7 123 4 150 -4z m2298 4 c11 -18 -8 -26 -83 -33 -68 -6 -73 -5 -73
13 0 17 8 21 63 24 34 2 67 4 74 5 6 1 15 -3 19 -9z m-2223 -213 c8 -20 -2
-26 -44 -26 -21 0 -61 -5 -89 -11 -33 -7 -55 -8 -61 -2 -17 17 13 31 86 41
100 14 102 13 108 -2z"/>
<path d="M2007 2659 c-42 -22 -76 -82 -77 -132 0 -42 24 -90 59 -120 27 -22
42 -27 89 -27 76 0 114 24 137 84 54 142 -77 264 -208 195z"/>
<path d="M2972 2660 c-73 -33 -101 -124 -62 -205 26 -54 64 -75 134 -75 47 0
60 4 90 30 83 74 69 208 -28 254 -45 21 -81 20 -134 -4z"/>
<path d="M2460 2303 c-50 -18 -66 -75 -31 -107 11 -10 37 -24 58 -31 37 -13
38 -15 41 -65 3 -48 1 -54 -33 -85 -65 -62 -149 -59 -220 6 -45 42 -65 44 -65
7 0 -47 128 -124 187 -113 10 2 28 4 39 4 12 1 45 17 74 36 l52 35 36 -30 c85
-67 205 -59 276 20 39 43 45 67 20 77 -10 4 -26 -6 -45 -26 -32 -35 -84 -61
-123 -61 -46 0 -105 31 -126 65 -26 42 -27 113 -2 121 9 3 36 14 59 24 65 30
71 87 12 117 -24 13 -179 17 -209 6z"/>
<path d="M4262 2558 c-7 -7 -12 -21 -12 -33 0 -49 71 -65 92 -20 9 21 8 28 -7
45 -20 22 -55 26 -73 8z"/>
<path d="M4023 1730 c-26 -11 -41 -56 -26 -79 15 -24 60 -37 81 -25 26 16 27
69 3 93 -23 23 -26 24 -58 11z"/>
<path d="M3677 974 c-10 -11 -8 -104 2 -104 17 0 52 60 49 83 -3 22 -36 36
-51 21z"/>
</g>
</svg>
